<svg xmlns="http://www.w3.org/2000/svg" viewBox="0 0 800 600" width="100%" height="100%">
  <style>
    .primary { fill: #4dabf7; }
    .primary-dark { fill: #3d8cd9; }
    .secondary { fill: #ff7e67; }
    .accent { fill: #5cb1fc; }
    .dark { fill: #2b3a4a; }
    .light { fill: #74b9ff; }
    .white { fill: #ffffff; }
    .connection { stroke: #4dabf7; stroke-width: 2; stroke-dasharray: 5,5; fill: none; }
    .data-line { stroke: #5cb1fc; stroke-width: 1.5; fill: none; }
    .shadow { fill: rgba(0,0,0,0.2); }
    .glow { filter: url(#glow-effect); }
    
    @keyframes float {
      0%, 100% { transform: translateY(0); }
      50% { transform: translateY(-10px); }
    }
    @keyframes pulse {
      0%, 100% { opacity: 0.7; transform: scale(1); }
      50% { opacity: 1; transform: scale(1.05); }
    }
    @keyframes spin {
      from { transform: rotate(0deg); }
      to { transform: rotate(360deg); }
    }
    @keyframes dash {
      from { stroke-dashoffset: 500; }
      to { stroke-dashoffset: 0; }
    }
    
    .float { animation: float 6s ease-in-out infinite; }
    .pulse { animation: pulse 3s infinite; }
    .spin { animation: spin 20s linear infinite; transform-origin: center; }
    .spin-reverse { animation: spin 25s linear infinite reverse; transform-origin: center; }
    .dash { animation: dash 15s linear infinite; }
  </style>
  
  <defs>
    <filter id="glow-effect" x="-20%" y="-20%" width="140%" height="140%">
      <feGaussianBlur stdDeviation="8" result="blur" />
      <feComposite in="SourceGraphic" in2="blur" operator="over" />
    </filter>
    
    <linearGradient id="ai-gradient" x1="0%" y1="0%" x2="100%" y2="100%">
      <stop offset="0%" stop-color="#4dabf7" />
      <stop offset="100%" stop-color="#2b7fe0" />
    </linearGradient>
    
    <radialGradient id="center-glow" cx="50%" cy="50%" r="50%" fx="50%" fy="50%">
      <stop offset="0%" stop-color="#4dabf7" stop-opacity="0.8" />
      <stop offset="70%" stop-color="#4dabf7" stop-opacity="0.2" />
      <stop offset="100%" stop-color="#4dabf7" stop-opacity="0" />
    </radialGradient>
  </defs>
  
  <!-- 背景元素 -->
  <ellipse class="shadow" cx="400" cy="550" rx="300" ry="30" />
  
  <!-- 中央连接区域 -->
  <g transform="translate(400, 300)">
    <circle fill="url(#center-glow)" cx="0" cy="0" r="150" class="pulse" />
    
    <!-- 数据网络 -->
    <g class="spin">
      <circle fill="none" stroke="#4dabf7" stroke-width="1" cx="0" cy="0" r="120" opacity="0.4" />
      <circle class="primary" cx="120" cy="0" r="5" />
      <circle class="primary" cx="-120" cy="0" r="5" />
      <circle class="primary" cx="0" cy="120" r="5" />
      <circle class="primary" cx="0" cy="-120" r="5" />
    </g>
    
    <g class="spin-reverse">
      <circle fill="none" stroke="#4dabf7" stroke-width="1" cx="0" cy="0" r="80" opacity="0.4" />
      <circle class="secondary" cx="80" cy="0" r="4" />
      <circle class="secondary" cx="-80" cy="0" r="4" />
      <circle class="secondary" cx="0" cy="80" r="4" />
      <circle class="secondary" cx="0" cy="-80" r="4" />
      <circle class="secondary" cx="56.6" cy="56.6" r="4" />
      <circle class="secondary" cx="-56.6" cy="-56.6" r="4" />
      <circle class="secondary" cx="56.6" cy="-56.6" r="4" />
      <circle class="secondary" cx="-56.6" cy="56.6" r="4" />
    </g>
  </g>
  
  <!-- 左侧：智能系统 -->
  <g class="float" transform="translate(250, 300)">
    <!-- 核心系统 -->
    <circle class="primary glow" cx="0" cy="0" r="60" opacity="0.9" />
    <circle class="dark" cx="0" cy="0" r="45" />
    
    <!-- 智能核心图形 -->
    <path class="light" d="M-20,-10 L-10,-10 L-10,-20 L10,-20 L10,-10 L20,-10 L20,10 L10,10 L10,20 L-10,20 L-10,10 L-20,10 Z" />
    
    <!-- 连接节点 -->
    <g>
      <circle class="accent" cx="45" cy="-30" r="10" />
      <circle class="accent" cx="-45" cy="30" r="10" />
      <circle class="accent" cx="0" cy="-50" r="10" />
      <circle class="accent" cx="45" cy="30" r="10" />
    </g>
    
    <!-- AI标识 -->
    <g transform="translate(0, -90)">
      <rect class="primary-dark" x="-30" y="-20" width="60" height="40" rx="5" />
      <text x="0" y="5" fill="#ffffff" font-family="Arial" font-weight="bold" font-size="18" text-anchor="middle">AI</text>
    </g>
  </g>
  
  <!-- 右侧：人类用户 -->
  <g class="float" style="animation-delay: 0.5s" transform="translate(550, 300)">
    <!-- 用户图形 -->
    <circle class="secondary glow" cx="0" cy="0" r="60" opacity="0.9" />
    <circle class="dark" cx="0" cy="0" r="45" />
    
    <!-- 用户符号 -->
    <g transform="translate(0, 0)">
      <circle class="white" cx="0" cy="-15" r="15" />
      <path class="white" d="M-25,15 Q0,50 25,15 Z" />
    </g>
    
    <!-- 连接节点 -->
    <g>
      <circle class="secondary" cx="-45" cy="-30" r="10" />
      <circle class="secondary" cx="45" cy="-30" r="10" />
      <circle class="secondary" cx="0" cy="-50" r="10" />
      <circle class="secondary" cx="-45" cy="30" r="10" />
    </g>
    
    <!-- 人类标识 -->
    <g transform="translate(0, -90)">
      <rect class="secondary" x="-40" y="-20" width="80" height="40" rx="5" />
      <text x="0" y="5" fill="#ffffff" font-family="Arial" font-weight="bold" font-size="18" text-anchor="middle">人类</text>
    </g>
  </g>
  
  <!-- 连接线 -->
  <path class="connection dash" d="M310,270 C380,230 470,230 490,270" />
  <path class="connection dash" d="M310,330 C380,370 470,370 490,330" />
  
  <!-- 数据流 -->
  <path class="data-line dash" d="M300,280 C370,240 480,240 500,280" stroke-dasharray="3,3" />
  <path class="data-line dash" d="M300,320 C370,360 480,360 500,320" stroke-dasharray="3,3" />
  
  <!-- 智能协作文字标识 -->
  <g transform="translate(400, 150)">
    <text x="0" y="0" fill="#4dabf7" font-family="Arial" font-weight="bold" font-size="24" text-anchor="middle" class="glow">智能协作平台</text>
  </g>
</svg> 